<svg id="Layer_1" data-name="Layer 1" xmlns="http://www.w3.org/2000/svg" viewBox="0 0 245.94 329.23"><title>7star</title><path d="M668.34,388.26l40.79-134H693.19l-40.79,134H642.21v0l40.79-134H642.71v-9.75H686l4.64-15.25h-47.9v-9.75H729.9L678.53,388.26Zm27.82-143.75H712.1l4.64-15.25H700.8Z" transform="translate(-560.03 -219.39)"/><path d="M729.73,219.64l-2.94,9.67-7.44,24.44-.17.56L678.44,388.14h-9.93L709.2,254.46l.1-.32H693.1l-.06.17L652.31,388.14h-9.93l40.69-133.68.1-.32H642.84v-9.5h43.22l.05-.18,4.57-15,.1-.32H642.84v-9.5h86.89m-33.74,25h16.2l.06-.18,4.56-15,.1-.32h-16.2l-.06.17-4.56,15-.1.33m34.08-25.25H642.59v10h47.85l-4.57,15H642.59v10h40.24L642.09,388.23v.16h10.4l40.79-134H709l-40.79,134h10.46l40.79-134,.17-.57L727,229.39l3-10Zm-33.74,25,4.56-15h15.68l-4.56,15Z" transform="translate(-560.03 -219.39)"/><path d="M560,416.45H601V430.1L574.5,507.47H560l26.53-77.37H560Z" transform="translate(-560.03 -219.39)"/><path d="M622.83,416.45h18.22l11.36,11.36v11.43L641.05,450.6h-2.28V432.38l-2.29-2.28H627.4l-2.28,2.28v22.79h20.44l6.85,6.79v34.15l-11.36,11.36H622.83l-11.36-11.36V484.75l11.36-11.43h2.29v18.22l2.28,2.29h9.08l2.29-2.29V468.82H618.26L611.47,462V427.81Z" transform="translate(-560.03 -219.39)"/><path d="M659.42,416.45h45.51V430.1H689v77.37H675.35v-66l11.36-11.36H659.42Z" transform="translate(-560.03 -219.39)"/><path d="M724.25,416.45h29.58v91H740.18V473.32L726.54,487v20.44H712.89V484.75l27.29-27.36V430.1H728.82l-2.28,2.28v31.87l-13.65,13.64V427.81Z" transform="translate(-560.03 -219.39)"/><path d="M765,416.39h29.58L806,427.81v27.3l-5.65,5.71,5.65,5.65v41H792.32V468.75L778.67,482.4v25.07H765V480.12l27.29-27.3v-20.5L790,430.1H778.67V462L765,475.61Z" transform="translate(-560.03 -219.39)"/><path d="M597.09,527.59h6.82v3.68l-2.63,2.64h-.52v-3.15h-2.63l-.53.51v13.67l.53.53h2.63v-.53l2.63-2.64h.52V546l-2.63,2.63h-4.19L594.45,546V530.23Z" transform="translate(-560.03 -219.39)"/><path d="M608.45,527.61h6.83V546l-2.62,2.62h-6.84V530.23Zm1,3.15-.51.53v14.18h2.62l.53-.53V530.76Z" transform="translate(-560.03 -219.39)"/><path d="M617.4,527.61h4.72l2.64,15v-15h3.15v21h-4.74l-2.62-15v15H617.4Z" transform="translate(-560.03 -219.39)"/><path d="M630,527.61h3.15v14.5l1.57,2.73,1.58-2.73v-14.5h3.15V543l-3.26,5.65h-2.92L630,543Z" transform="translate(-560.03 -219.39)"/><path d="M641.69,527.59h7.88v3.17h-4.73v5.77H648v3.15h-3.15v5.79h4.73v3.14h-7.88Z" transform="translate(-560.03 -219.39)"/><path d="M651.91,527.61h4.72l2.64,15v-15h3.15v21h-4.74l-2.62-15v15h-3.15Z" transform="translate(-560.03 -219.39)"/><path d="M664.52,527.61h3.15v21h-3.15Z" transform="translate(-560.03 -219.39)"/><path d="M669.77,527.59h7.88v3.17h-4.73v5.77h3.15v3.15h-3.15v5.79h4.73v3.14h-7.88Z" transform="translate(-560.03 -219.39)"/><path d="M680,527.61h4.72l2.64,15v-15h3.15v21h-4.74l-2.62-15v15H680Z" transform="translate(-560.03 -219.39)"/><path d="M695.23,527.61h6.82v6.3H698.9v-3.15h-2.62l-.53.53v13.65l.53.53h2.62v-3.15h3.15v6.29h-6.82L692.6,546V530.23Z" transform="translate(-560.03 -219.39)"/><path d="M704.13,527.59H712v3.17h-4.73v5.77h3.15v3.15h-3.15v5.79H712v3.14h-7.88Z" transform="translate(-560.03 -219.39)"/><path d="M725,527.61h4.2l2.63,2.62v2.64l-2.63,2.62h-.52v-4.2l-.53-.53h-2.1l-.52.53v5.25h4.71l1.59,1.57V546l-2.63,2.62H725L722.4,546v-2.62l2.62-2.64h.53v4.21l.52.53h2.1l.53-.53v-5.25H724l-1.56-1.58v-7.88Z" transform="translate(-560.03 -219.39)"/><path d="M733.08,527.61h10.5v3.15H739.9v17.85h-3.15V530.76h-3.67Z" transform="translate(-560.03 -219.39)"/><path d="M747.66,527.61h6.83V546l-2.62,2.62H745V530.23Zm1,3.15-.51.53v14.18h2.62l.53-.53V530.76Z" transform="translate(-560.03 -219.39)"/><path d="M756.61,527.61h6.83l2.64,2.62v6.3l-1.32,1.32,1.32,1.32v9.44h-3.15v-8.4l-.53-.52h-2.64v8.92h-3.15Zm3.15,3.15v5.77h3.17v-5.24l-.53-.53Z" transform="translate(-560.03 -219.39)"/><path d="M768.1,527.59H776v3.17h-4.73v5.77h3.15v3.15h-3.15v5.79H776v3.14H768.1Z" transform="translate(-560.03 -219.39)"/><polygon points="16.05 311.39 18.49 316.34 23.95 317.13 20 320.99 20.93 326.42 16.05 323.86 11.16 326.42 12.1 320.99 8.14 317.13 13.6 316.34 16.05 311.39"/><polygon points="236.05 311.39 238.49 316.34 243.95 317.13 240 320.99 240.93 326.42 236.05 323.86 231.16 326.42 232.09 320.99 228.14 317.13 233.6 316.34 236.05 311.39"/></svg>