<svg id="Layer_1" data-name="Layer 1" xmlns="http://www.w3.org/2000/svg" viewBox="0 0 247.14 329.73"><defs><style>.cls-1,.cls-2{fill:#fff;}.cls-2{stroke:#fff;stroke-miterlimit:10;}</style></defs><title>7starw</title><path class="cls-1" d="M668.85,387.89l40.79-134H692.91l-40.79,134h-9.41l40.79-134H643.09v-9h43.15l4.87-16h-48v-9h86.3l-51.14,168Zm26.8-143h16.73l4.87-16H700.52Z" transform="translate(-559.33 -219.39)"/><path class="cls-1" d="M728.72,220.39l-2.65,8.7-7.44,24.44-.17.56-40.58,133.3h-8.36l40.4-132.71.39-1.29H692.54l-.21.7-40.58,133.3h-8.36l40.4-132.71.39-1.29H643.59v-8h43l.22-.71,4.57-15,.39-1.29h-48.2v-8h85.13m-33.74,25h17.77l.21-.71,4.57-15,.39-1.29H700.15l-.21.7-4.57,15-.39,1.3m35.09-26H642.59v10h47.85l-4.57,15H642.59v10h40.24L642.09,388.23v.16h10.4l40.79-134H709l-40.79,134h10.46l40.79-134,.17-.57L727,229.39l3-10Zm-33.74,25,4.56-15h15.68l-4.56,15Z" transform="translate(-559.33 -219.39)"/><path class="cls-2" d="M560,416.45H601V430.1L574.5,507.47H560l26.53-77.37H560Z" transform="translate(-559.33 -219.39)"/><path class="cls-2" d="M622.83,416.45h18.22l11.36,11.36v11.43L641.05,450.6h-2.28V432.38l-2.29-2.28H627.4l-2.28,2.28v22.79h20.44l6.85,6.79v34.15l-11.36,11.36H622.83l-11.36-11.36V484.75l11.36-11.43h2.29v18.22l2.28,2.29h9.08l2.29-2.29V468.82H618.26L611.47,462V427.81Z" transform="translate(-559.33 -219.39)"/><path class="cls-2" d="M659.42,416.45h45.51V430.1H689v77.37H675.35v-66l11.36-11.36H659.42Z" transform="translate(-559.33 -219.39)"/><path class="cls-2" d="M724.25,416.45h29.58v91H740.18V473.32L726.54,487v20.44H712.89V484.75l27.29-27.36V430.1H728.82l-2.28,2.28v31.87l-13.65,13.64V427.81Z" transform="translate(-559.33 -219.39)"/><path class="cls-2" d="M765,416.39h29.58L806,427.81v27.3l-5.65,5.71,5.65,5.65v41H792.32V468.75L778.67,482.4v25.07H765V480.12l27.29-27.3v-20.5L790,430.1H778.67V462L765,475.61Z" transform="translate(-559.33 -219.39)"/><path class="cls-2" d="M597.09,527.59h6.82v3.68l-2.63,2.64h-.52v-3.15h-2.63l-.53.51v13.67l.53.53h2.63v-.53l2.63-2.64h.52V546l-2.63,2.63h-4.19L594.45,546V530.23Z" transform="translate(-559.33 -219.39)"/><path class="cls-2" d="M608.45,527.61h6.83V546l-2.62,2.62h-6.84V530.23Zm1,3.15-.51.53v14.18h2.62l.53-.53V530.76Z" transform="translate(-559.33 -219.39)"/><path class="cls-2" d="M617.4,527.61h4.72l2.64,15v-15h3.15v21h-4.74l-2.62-15v15H617.4Z" transform="translate(-559.33 -219.39)"/><path class="cls-2" d="M630,527.61h3.15v14.5l1.57,2.73,1.58-2.73v-14.5h3.15V543l-3.26,5.65h-2.92L630,543Z" transform="translate(-559.33 -219.39)"/><path class="cls-2" d="M641.69,527.59h7.88v3.17h-4.73v5.77H648v3.15h-3.15v5.79h4.73v3.14h-7.88Z" transform="translate(-559.33 -219.39)"/><path class="cls-2" d="M651.91,527.61h4.72l2.64,15v-15h3.15v21h-4.74l-2.62-15v15h-3.15Z" transform="translate(-559.33 -219.39)"/><path class="cls-2" d="M664.52,527.61h3.15v21h-3.15Z" transform="translate(-559.33 -219.39)"/><path class="cls-2" d="M669.77,527.59h7.88v3.17h-4.73v5.77h3.15v3.15h-3.15v5.79h4.73v3.14h-7.88Z" transform="translate(-559.33 -219.39)"/><path class="cls-2" d="M680,527.61h4.72l2.64,15v-15h3.15v21h-4.74l-2.62-15v15H680Z" transform="translate(-559.33 -219.39)"/><path class="cls-2" d="M695.23,527.61h6.82v6.3H698.9v-3.15h-2.62l-.53.53v13.65l.53.53h2.62v-3.15h3.15v6.29h-6.82L692.6,546V530.23Z" transform="translate(-559.33 -219.39)"/><path class="cls-2" d="M704.13,527.59H712v3.17h-4.73v5.77h3.15v3.15h-3.15v5.79H712v3.14h-7.88Z" transform="translate(-559.33 -219.39)"/><path class="cls-2" d="M725,527.61h4.2l2.63,2.62v2.64l-2.63,2.62h-.52v-4.2l-.53-.53h-2.1l-.52.53v5.25h4.71l1.59,1.57V546l-2.63,2.62H725L722.4,546v-2.62l2.62-2.64h.53v4.21l.52.53h2.1l.53-.53v-5.25H724l-1.56-1.58v-7.88Z" transform="translate(-559.33 -219.39)"/><path class="cls-2" d="M733.08,527.61h10.5v3.15H739.9v17.85h-3.15V530.76h-3.67Z" transform="translate(-559.33 -219.39)"/><path class="cls-2" d="M747.66,527.61h6.83V546l-2.62,2.62H745V530.23Zm1,3.15-.51.53v14.18h2.62l.53-.53V530.76Z" transform="translate(-559.33 -219.39)"/><path class="cls-2" d="M756.61,527.61h6.83l2.64,2.62v6.3l-1.32,1.32,1.32,1.32v9.44h-3.15v-8.4l-.53-.52h-2.64v8.92h-3.15Zm3.15,3.15v5.77h3.17v-5.24l-.53-.53Z" transform="translate(-559.33 -219.39)"/><path class="cls-2" d="M768.1,527.59H776v3.17h-4.73v5.77h3.15v3.15h-3.15v5.79H776v3.14H768.1Z" transform="translate(-559.33 -219.39)"/><polygon class="cls-2" points="16.75 311.39 19.19 316.34 24.65 317.13 20.7 320.99 21.63 326.42 16.75 323.86 11.86 326.42 12.79 320.99 8.84 317.13 14.3 316.34 16.75 311.39"/><polygon class="cls-2" points="236.75 311.39 239.19 316.34 244.65 317.13 240.7 320.99 241.63 326.42 236.75 323.86 231.86 326.42 232.79 320.99 228.84 317.13 234.3 316.34 236.75 311.39"/></svg>