<svg id="Layer_1" data-name="Layer 1" xmlns="http://www.w3.org/2000/svg" viewBox="0 0 334 470.63"><defs><style>.cls-1{fill:none;}.cls-2{fill:#efb73d;}.cls-3{fill:#6c8c8c;}.cls-4{fill:#c9833d;opacity:0.32;}</style></defs><title>royal logo</title><text x="-516" y="-148.7"/><path class="cls-1" d="M690,424.2a23.83,23.83,0,0,0,10.27-6.14q10.72-10.59,10.72-26.24a40,40,0,0,0-3.11-15.72A32.39,32.39,0,0,0,699.19,364,24.55,24.55,0,0,0,689,359q-5.93-1.43-16.86-1.43h-4.19v68.15h3.89Q684.48,425.68,690,424.2Z" transform="translate(-516 -148.7)"/><polygon class="cls-1" points="89.66 458.2 89.66 453.46 81.76 453.46 81.76 459.2 86.61 459.2 89.66 458.2"/><polygon class="cls-1" points="194.13 468.06 202.78 468.06 202.78 467.37 199.09 466.07 199.09 463.4 199.46 463.4 202.78 464.56 202.78 453.51 194.13 453.51 194.13 468.06"/><polygon class="cls-1" points="81.76 461.58 81.76 468.11 89.82 468.11 89.82 462.53 86.72 461.58 81.76 461.58"/><rect class="cls-1" x="107.63" y="453.51" width="8.65" height="14.55"/><rect class="cls-1" x="190.67" y="383.66" width="14.11" height="51.11"/><polygon class="cls-1" points="274.98 421.71 285.04 421.71 280.03 390.69 274.98 421.71"/><polygon class="cls-2" points="282.12 250.92 284.7 258.51 289.15 251.85 297.17 251.75 292.21 245.45 294.58 237.79 287.06 240.56 280.52 235.94 280.83 243.95 274.4 248.74 282.12 250.92"/><polygon class="cls-2" points="45.3 251.95 50.1 258.37 52.28 250.66 59.87 248.08 53.21 243.63 53.1 235.61 46.8 240.57 39.15 238.19 41.92 245.72 37.29 252.26 45.3 251.95"/><path class="cls-2" d="M850,224.75a126.11,126.11,0,0,0-64.46,94.05,159,159,0,0,0-205.08,0A126.11,126.11,0,0,0,516,224.75c28.86-1.74,46.73,6,54.88,14.11a53.6,53.6,0,0,1,5.69,6.52c4.24,5.81,5.29,7.39,8.62,12.46a58.36,58.36,0,0,0,9.21,10.81c5.8,5.26,13.57,6.4,18.82,3.14s4.7-7.84,4.7-9.41a25.7,25.7,0,0,0-3.13-12.54c-5.43-9.8-11-11.4-15.68-17.25-4.46-5.57-8.64-15.21-6.27-32.93,28,9.25,36.6,20.83,39.2,29.79,3.14,10.83-1.61,19.21,6.27,28.23.6.68,7.25,8.06,17.25,7.84,1.73,0,9.51-.21,14.11-6.28,3.17-4.17,3.24-7.46,3.14-9.4a18.78,18.78,0,0,0-1.57-6.28,66.63,66.63,0,0,0-7.84-14.11c-7.21-10.18-5.38-22.95-4.71-28.22.33-2.57,1.17-9,11-28.23,5.29-10.35,10-18.67,13.33-24.3,3.31,5.63,8,14,13.33,24.3,9.81,19.22,10.65,25.66,11,28.23.67,5.27,2.5,18-4.71,28.22a66.63,66.63,0,0,0-7.84,14.11,18.78,18.78,0,0,0-1.57,6.28c-.1,1.94,0,5.23,3.14,9.4,4.6,6.07,12.38,6.24,14.11,6.28,10,.22,16.65-7.16,17.25-7.84,7.88-9,3.13-17.4,6.27-28.23,2.6-9,11.18-20.54,39.2-29.79,2.37,17.72-1.81,27.36-6.27,32.93-4.68,5.85-10.25,7.45-15.68,17.25a25.7,25.7,0,0,0-3.13,12.54c0,1.57-.6,6.12,4.7,9.41s13,2.12,18.82-3.14a58.36,58.36,0,0,0,9.21-10.81c3.33-5.07,4.38-6.65,8.62-12.46a53.6,53.6,0,0,1,5.69-6.52C803.27,230.78,821.14,223,850,224.75Z" transform="translate(-516 -148.7)"/><path class="cls-2" d="M835,426.75h.25a3,3,0,0,0,2.74-3.23c-3.12-37.73-20.64-72.72-49.32-98.53a158.89,158.89,0,0,0-211.34,0c-28.69,25.81-46.2,60.8-49.32,98.53a3,3,0,0,0,6,.49c6.18-74.72,71.63-133.25,149-133.25S825.83,349.28,832,424A3,3,0,0,0,835,426.75Z" transform="translate(-516 -148.7)"/><polygon class="cls-2" points="173.28 158.39 167.17 145.65 160.77 158.25 146.76 160.12 156.77 170.1 154.22 183.99 166.8 177.56 179.23 184.28 177 170.33 187.24 160.59 173.28 158.39"/><polygon class="cls-2" points="84.7 198.18 91.2 206.89 94.16 196.43 104.45 192.93 95.42 186.89 95.28 176.02 86.73 182.74 76.35 179.52 80.11 189.72 73.84 198.6 84.7 198.18"/><polygon class="cls-2" points="243.88 207.08 249.92 198.04 260.79 197.9 254.06 189.36 257.29 178.98 247.08 182.74 238.21 176.46 238.63 187.32 229.92 193.83 240.38 196.79 243.88 207.08"/><path class="cls-3" d="M672.94,428a29.17,29.17,0,0,1,7.76.9,17.64,17.64,0,0,1,5.93,3q5.42,4.23,12,15.77a272.76,272.76,0,0,1,13,26.77l7.15,16.82,3.27,7.41h33.91v-2.43a18.12,18.12,0,0,1-6.59-1.7,16.25,16.25,0,0,1-4.95-4.55,87.9,87.9,0,0,1-7.82-13q-4.65-8.94-13.74-28.3-3.88-8.47-5.82-11.8a24.26,24.26,0,0,0-4.29-5.56,31,31,0,0,0-9.09-5.5,71.17,71.17,0,0,0,11.9-3.6,34.46,34.46,0,0,0,8.12-4.87q12.06-9.94,12.06-26.45a34.53,34.53,0,0,0-5.57-19.52,34,34,0,0,0-15.68-12.65q-9-3.71-24.83-4.44-3.89-.11-16.24-.11H624.11v2.43a32.85,32.85,0,0,1,9.5,1.7,16.18,16.18,0,0,1,6.43,4.44,17.36,17.36,0,0,1,4.4,8.57q1.13,5.19,1.12,16.09v78q0,10.91-1.12,16.09a17.78,17.78,0,0,1-10.78,13,31.15,31.15,0,0,1-9.55,1.75v2.43h65.28v-2.43a31.09,31.09,0,0,1-9.55-1.75,17.24,17.24,0,0,1-6.39-4.39,18.13,18.13,0,0,1-4.34-8.62q-1.18-5.25-1.18-16V428Zm-5-70.47h4.19q10.93,0,16.86,1.43a24.55,24.55,0,0,1,10.21,5,32.39,32.39,0,0,1,8.64,12.11,40,40,0,0,1,3.11,15.72q0,15.66-10.72,26.24A23.83,23.83,0,0,1,690,424.2q-5.46,1.47-18.13,1.48h-3.89Z" transform="translate(-516 -148.7)"/><rect class="cls-2" x="12" y="359.03" width="310" height="3"/><rect class="cls-2" x="12" y="364.03" width="310" height="3"/><polygon class="cls-3" points="13.44 443.6 23.68 443.6 23.68 383.92 35.02 383.92 35.02 374.82 2.1 374.82 2.1 383.92 13.44 383.92 13.44 443.6"/><polygon class="cls-3" points="64.82 403.17 50.89 403.17 50.89 374.82 40.61 374.82 40.61 443.6 50.89 443.6 50.89 412.75 64.82 412.75 64.82 443.6 75.19 443.6 75.19 374.82 64.82 374.82 64.82 403.17"/><polygon class="cls-3" points="111.98 383.92 111.98 374.82 83.73 374.82 83.73 443.6 112.25 443.6 112.25 434.5 94.01 434.5 94.01 412.93 109.48 412.93 109.48 404 94.01 404 94.01 383.92 111.98 383.92"/><path class="cls-2" d="M685.09,560.48q2.94-1.28,2.94-5.62v-25q0-6.33-6.19-6.32H654.55V592.3h10.28V532.36h13v21.8h-10.1v6.19L679,592.3h10.73l-11.34-31.16C681.81,561.14,684,560.92,685.09,560.48Z" transform="translate(-516 -148.7)"/><path class="cls-2" d="M724.82,523.53H702.5q-6.11,0-6.11,6.32V586q0,6.29,6.11,6.28h22.32q6.24,0,6.24-6.28V529.85Q731.06,523.52,724.82,523.53Zm-4,59.94H706.67V532.36h14.11Z" transform="translate(-516 -148.7)"/><path class="cls-2" d="M760.65,592.3V567q2.85-10.11,4.52-14.37l9.1-28.74v-.39H763.72l-8.17,29.88-8.22-29.88H736.74q0,.35,0,.39l9,28.74c.12.38,1,2.76,2.51,7.12a58.53,58.53,0,0,1,2,7.25V592.3Z" transform="translate(-516 -148.7)"/><path class="cls-2" d="M804.56,592.3h10.19l-13.23-68.86H790.71L777.4,592.12v.18h10.15l2.06-13h12.88ZM791,570.42l5-31,5,31Z" transform="translate(-516 -148.7)"/><polygon class="cls-2" points="315.15 374.82 304.87 374.82 304.87 443.6 331.89 443.6 331.89 434.42 315.15 434.42 315.15 374.82"/><path class="cls-3" d="M610.69,610.05c-.12-.06-1.25-.39-3.39-1,2.06-.59,3.16-.91,3.29-1,.89-.37,1.34-.88,1.34-1.55v-5c0-1.21-1.25-1.8-3.74-1.8H591.45v19.57H608.3c2.56,0,3.85-.59,3.85-1.79v-5.81C612.15,611,611.66,610.45,610.69,610.05Zm-12.93-7.89h7.89v4.74l-3,1h-4.85Zm8.06,14.65h-8.06v-6.53h5l3.1,1Z" transform="translate(-516 -148.7)"/><path class="cls-3" d="M634.76,599.7H621.07c-2.49,0-3.74.59-3.74,1.8v16c0,1.2,1.25,1.79,3.74,1.79h13.69c2.55,0,3.83-.59,3.83-1.79v-16C638.59,600.29,637.31,599.7,634.76,599.7Zm-2.48,17.06h-8.65V602.21h8.65Z" transform="translate(-516 -148.7)"/><path class="cls-3" d="M658.67,616.76h-8.49V599.7h-6.3v17.78c0,1.2,1.27,1.79,3.82,1.79h13.4c2.58,0,3.88-.59,3.88-1.79V599.7h-6.31Z" transform="translate(-516 -148.7)"/><polygon class="cls-3" points="152 453.56 158.98 453.56 158.98 470.61 165.28 470.61 165.28 453.56 172.26 453.56 172.26 450.96 152 450.96 152 453.56"/><rect class="cls-3" x="175.81" y="450.96" width="6.33" height="19.65"/><path class="cls-3" d="M724.89,601.47c0-1.21-1.28-1.81-3.84-1.81H707.39c-2.56,0-3.84.6-3.84,1.81v16c0,1.2,1.26,1.8,3.76,1.8h13.74c1.79,0,2.93-.33,3.44-1l2.84,1h.43v-2.7l-2.87-1Zm-6.33,11.8-3.32-1.16h-.38v2.68l3.7,1.31v.69h-8.68V602.18h8.68Z" transform="translate(-516 -148.7)"/><path class="cls-3" d="M745.89,616.79h-8.52V599.66H731v17.85q0,1.8,3.84,1.8h13.44q3.9,0,3.9-1.8V599.66h-6.33Z" transform="translate(-516 -148.7)"/><polygon class="cls-3" points="247.85 461.85 257.38 461.85 257.38 459.3 247.85 459.3 247.85 453.56 258.92 453.56 258.92 450.96 241.53 450.96 241.53 470.61 259.08 470.61 259.08 468.01 247.85 468.01 247.85 461.85"/><rect class="cls-2" x="12" y="460.34" width="48" height="3"/><rect class="cls-2" x="274" y="460.34" width="48" height="3"/><path class="cls-4" d="M850,224.75a126.11,126.11,0,0,0-64.46,94.05A157.68,157.68,0,0,0,683,281.32V148.7c3.31,5.63,8,14,13.33,24.3,9.81,19.22,10.65,25.66,11,28.23.67,5.27,2.5,18-4.71,28.22a66.63,66.63,0,0,0-7.84,14.11,18.78,18.78,0,0,0-1.57,6.28c-.1,1.94,0,5.23,3.14,9.4,4.6,6.07,12.38,6.24,14.11,6.28,10,.22,16.65-7.16,17.25-7.84,7.88-9,3.13-17.4,6.27-28.23,2.6-9,11.18-20.54,39.2-29.79,2.37,17.72-1.81,27.36-6.27,32.93-4.68,5.85-10.25,7.45-15.68,17.25a25.7,25.7,0,0,0-3.13,12.54c0,1.57-.6,6.12,4.7,9.41s13,2.12,18.82-3.14a58.36,58.36,0,0,0,9.21-10.81c3.33-5.07,4.38-6.65,8.62-12.46a53.6,53.6,0,0,1,5.69-6.52C803.27,230.78,821.14,223,850,224.75Z" transform="translate(-516 -148.7)"/></svg>